<?xml version="1.0" standalone="no"?>
<!DOCTYPE svg PUBLIC "-//W3C//DTD SVG 20010904//EN"
 "http://www.w3.org/TR/2001/REC-SVG-20010904/DTD/svg10.dtd">
<svg version="1.0" xmlns="http://www.w3.org/2000/svg"
 width="500.000000pt" height="500.000000pt" viewBox="0 0 500.000000 500.000000"
 preserveAspectRatio="xMidYMid meet">
<metadata>
Created by potrace 1.14, written by Peter Selinger 2001-2017
</metadata>
<g transform="translate(0.000000,500.000000) scale(0.100000,-0.100000)"
fill="#000000" stroke="none">
<path d="M1274 3606 c-123 -28 -228 -98 -270 -178 -25 -49 -30 -147 -9 -189
39 -77 80 -97 126 -60 22 18 23 21 11 65 -18 68 -15 104 13 151 62 106 209
155 349 115 69 -19 139 -86 166 -157 67 -179 9 -459 -109 -535 -65 -40 -145
-40 -229 3 -34 17 -62 35 -62 39 0 5 8 31 19 57 10 26 35 104 56 173 44 147
79 241 112 292 30 49 29 54 -8 67 -43 15 -44 15 -82 -19 -45 -39 -87 -133
-148 -331 -28 -90 -53 -166 -55 -168 -2 -3 -21 3 -42 13 -56 27 -143 32 -197
12 -52 -20 -82 -57 -90 -112 -12 -82 51 -141 162 -151 74 -7 131 9 185 50 l42
33 79 -41 c75 -38 84 -40 171 -40 82 0 96 3 144 29 108 60 179 172 208 327 62
323 -99 552 -396 565 -51 2 -110 -2 -146 -10z m-189 -733 c19 -9 35 -20 35
-24 0 -4 -16 -21 -35 -38 -55 -48 -135 -39 -135 16 0 59 63 81 135 46z"/>
<path d="M2102 3594 c-43 -83 -260 -850 -248 -880 7 -18 66 -27 106 -17 l34 9
41 161 c43 170 56 194 135 256 42 34 76 43 95 27 21 -17 19 -30 -20 -171 -58
-206 -46 -276 47 -286 64 -7 109 11 175 70 31 29 54 47 50 41 -3 -6 -2 -27 4
-47 25 -92 161 -88 267 7 l40 37 -10 -41 c-8 -31 -8 -44 1 -53 15 -14 107 -15
122 0 5 5 25 70 44 143 43 163 64 208 122 259 88 78 178 62 137 -24 -18 -39
-60 -74 -129 -107 l-47 -23 5 -76 c6 -96 34 -155 82 -175 103 -43 212 12 313
160 50 71 125 237 138 305 4 17 10 31 15 31 12 0 59 -72 59 -90 0 -8 -21 -49
-46 -90 -79 -132 -91 -217 -38 -279 69 -82 226 -62 328 43 42 44 116 160 116
183 0 7 -9 17 -20 23 -16 9 -22 6 -36 -22 -35 -69 -88 -130 -138 -158 -59 -34
-96 -38 -119 -12 -34 38 -9 121 67 227 55 76 50 93 -53 198 -58 59 -66 72 -67
106 0 48 -18 71 -53 71 -58 0 -85 -64 -59 -137 10 -28 9 -43 -11 -105 -63
-198 -173 -358 -254 -373 -70 -13 -97 11 -111 102 l-6 42 52 24 c104 47 161
121 161 206 0 37 -5 49 -33 74 -31 27 -38 29 -90 24 -66 -6 -106 -24 -161 -74
-22 -20 -39 -29 -39 -22 0 8 27 103 61 213 69 229 69 230 -23 231 l-52 0 -78
-265 c-43 -146 -85 -291 -94 -323 -33 -111 -144 -243 -199 -235 -31 5 -25 70
25 248 58 210 58 207 25 220 -31 12 -75 13 -93 2 -7 -5 -29 -67 -51 -138 -46
-157 -77 -219 -140 -285 -36 -38 -55 -50 -72 -47 -37 5 -35 35 10 193 50 175
52 215 12 256 -57 56 -154 34 -252 -58 l-49 -45 16 53 c43 149 97 324 110 356
14 32 14 38 0 51 -8 8 -37 17 -64 20 -42 4 -52 1 -60 -14z"/>
<path d="M2710 3487 c-13 -7 -31 -29 -38 -49 -13 -33 -13 -40 2 -63 34 -51
112 -40 140 20 21 44 20 52 -9 80 -27 27 -57 31 -95 12z"/>
<path d="M3400 2545 c-14 -7 -33 -16 -43 -19 -11 -3 -21 -15 -24 -26 -3 -11
-11 -20 -19 -20 -16 0 -36 -34 -26 -44 4 -4 -1 -12 -11 -18 -12 -6 -18 -19
-16 -36 1 -15 -2 -35 -6 -45 -4 -9 -4 -25 0 -35 4 -9 7 -29 6 -44 -1 -14 2
-29 8 -33 6 -3 11 -19 11 -35 0 -15 7 -30 15 -34 8 -3 15 -17 15 -31 0 -14 5
-25 11 -25 5 0 15 -13 20 -30 6 -16 17 -30 24 -30 7 0 18 -13 24 -30 5 -16 16
-30 23 -30 7 0 19 -9 26 -20 7 -11 20 -20 30 -20 9 0 23 -9 30 -20 7 -11 23
-20 36 -20 14 0 28 -5 32 -11 4 -6 19 -9 37 -5 17 3 36 1 44 -5 10 -9 18 -8
31 4 10 9 27 14 39 11 14 -4 25 1 34 14 8 10 24 24 37 31 12 6 22 20 22 29 0
10 9 26 21 35 14 12 18 24 14 35 -4 9 -7 32 -6 50 1 26 -3 35 -18 39 -11 3
-21 15 -23 27 -2 14 -11 22 -28 24 -14 2 -30 10 -36 17 -6 8 -24 15 -40 15
-70 0 -154 7 -161 13 -3 4 -17 7 -30 7 -13 0 -26 7 -29 15 -4 8 -12 15 -20 15
-8 0 -14 9 -14 19 0 11 -4 22 -9 25 -13 8 0 57 20 77 11 11 28 19 39 19 10 0
23 6 27 13 16 26 40 26 52 1 7 -16 18 -24 29 -22 10 1 36 -11 58 -28 21 -17
53 -40 71 -52 l31 -22 22 35 c12 19 18 39 15 45 -7 11 -74 44 -113 55 -12 4
-33 18 -46 32 -13 14 -31 23 -38 20 -8 -3 -20 4 -26 14 -7 10 -19 19 -27 19
-8 0 -15 6 -15 14 0 24 -26 39 -49 27 -13 -7 -22 -8 -26 -1 -8 14 -25 12 -55
-5z m48 -22 c-2 -10 -10 -18 -18 -18 -8 0 -16 8 -18 18 -2 12 3 17 18 17 15 0
20 -5 18 -17z m70 0 c5 -18 -28 -29 -38 -12 -5 7 -6 17 -3 22 7 12 35 5 41
-10z m-131 -19 c8 -21 -13 -42 -28 -27 -13 13 -5 43 11 43 6 0 13 -7 17 -16z
m99 -19 c25 -13 26 -15 8 -15 -12 0 -27 -7 -34 -15 -7 -8 -20 -15 -29 -15 -22
0 -41 -19 -41 -42 0 -10 -4 -18 -9 -18 -15 0 -24 -41 -13 -52 6 -6 8 -23 5
-39 -4 -21 0 -31 16 -41 12 -7 21 -21 21 -30 0 -11 11 -20 28 -24 15 -4 35
-13 44 -22 10 -8 25 -12 34 -8 9 3 22 2 28 -3 6 -5 37 -9 70 -8 32 1 60 -1 63
-5 2 -5 14 -8 26 -8 40 -1 71 -37 72 -83 2 -44 -12 -64 -65 -98 -29 -18 -135
-18 -153 0 -6 6 -19 11 -29 11 -9 0 -22 9 -28 20 -6 11 -15 20 -20 20 -14 0
-69 62 -70 78 0 6 -5 12 -11 12 -5 0 -15 14 -20 30 -6 17 -15 30 -20 30 -5 0
-9 11 -9 24 0 13 -6 29 -14 36 -8 6 -12 18 -9 26 3 8 1 20 -4 27 -10 14 -10
73 1 102 19 48 42 85 54 85 7 0 15 7 18 15 4 10 13 13 24 10 10 -3 21 -1 25 5
8 13 7 13 41 -5z m78 -3 c9 -14 -12 -35 -28 -29 -23 9 -20 37 3 37 11 0 22 -4
25 -8z m-224 -32 c0 -13 -7 -20 -20 -20 -19 0 -27 20 -13 33 13 14 33 6 33
-13z m290 1 c7 -15 6 -24 -6 -36 -19 -18 -33 -16 -48 7 -7 12 -6 21 3 32 18
22 38 20 51 -3z m-123 -7 c9 -23 -13 -40 -32 -24 -12 10 -13 16 -4 26 15 18
28 18 36 -2z m-60 -30 c8 -21 -13 -42 -28 -27 -13 13 -5 43 11 43 6 0 13 -7
17 -16z m320 -46 c13 -11 1 -48 -16 -48 -15 0 -101 73 -101 86 0 11 12 9 52
-7 29 -11 58 -25 65 -31z m-460 26 c8 -21 -13 -42 -28 -27 -13 13 -5 43 11 43
6 0 13 -7 17 -16z m108 -49 c0 -28 -29 -25 -33 3 -3 19 0 23 15 20 10 -2 18
-12 18 -23z m-107 -22 c5 -17 -26 -29 -40 -15 -6 6 -7 15 -3 22 9 14 37 9 43
-7z m116 -38 c3 -9 -1 -18 -10 -22 -19 -7 -39 11 -30 26 10 16 33 13 40 -4z
m-111 -41 c-3 -8 -12 -14 -19 -14 -20 0 -30 30 -13 40 17 11 40 -7 32 -26z
m150 -8 c8 -19 -15 -37 -32 -26 -17 10 -7 40 13 40 7 0 16 -6 19 -14z m57 -35
c0 -11 -4 -22 -9 -25 -12 -8 -34 21 -26 34 11 17 35 11 35 -9z m-190 -11 c0
-11 -6 -20 -14 -20 -18 0 -29 16 -21 30 11 18 35 11 35 -10z m257 4 c7 -18
-17 -38 -31 -24 -11 11 -1 40 14 40 6 0 13 -7 17 -16z m73 -9 c0 -9 -7 -18
-16 -22 -18 -7 -39 11 -30 26 11 17 46 13 46 -4z m63 2 c8 -21 -7 -39 -26 -31
-20 7 -22 30 -4 37 20 9 25 8 30 -6z m61 -34 c8 -20 -14 -36 -31 -22 -14 12
-6 39 12 39 7 0 16 -8 19 -17z m-421 -17 c7 -18 -1 -26 -25 -26 -18 0 -25 20
-11 33 11 12 31 8 36 -7z m464 -32 c9 -23 -13 -40 -32 -24 -12 10 -13 16 -4
26 15 18 28 18 36 -2z m-429 -31 c-5 -26 -38 -29 -38 -4 0 15 6 21 21 21 14 0
19 -5 17 -17z m432 -43 c0 -13 -7 -20 -20 -20 -19 0 -27 20 -13 33 13 14 33 6
33 -13z m-391 -3 c13 -16 5 -27 -21 -27 -18 0 -25 20 -11 33 10 10 19 8 32 -6z
m51 -57 c0 -13 -7 -20 -20 -20 -13 0 -20 7 -20 20 0 13 7 20 20 20 13 0 20 -7
20 -20z m308 3 c5 -18 -28 -29 -38 -12 -5 7 -6 17 -3 22 7 12 35 5 41 -10z
m-251 -29 c6 -16 -15 -37 -29 -28 -4 3 -8 14 -8 25 0 23 28 26 37 3z m201 -11
c5 -17 -26 -29 -40 -15 -6 6 -7 15 -3 22 9 14 37 9 43 -7z m-139 -6 c13 -16 5
-27 -21 -27 -18 0 -25 20 -11 33 10 10 19 8 32 -6z m69 -14 c-2 -10 -10 -18
-18 -18 -8 0 -16 8 -18 18 -2 12 3 17 18 17 15 0 20 -5 18 -17z"/>
<path d="M2106 2333 c-3 -3 -6 -52 -6 -107 l0 -101 44 -3 c55 -3 76 15 76 68
0 45 -25 66 -66 56 -23 -6 -24 -4 -24 38 0 43 -10 63 -24 49z m90 -127 c8 -33
-3 -64 -26 -71 -31 -10 -40 2 -40 51 0 42 1 44 30 44 23 0 31 -5 36 -24z"/>
<path d="M1170 2220 c0 -55 4 -100 9 -100 6 0 11 15 13 32 4 47 32 48 77 4 46
-45 64 -35 20 10 -30 31 -31 33 -15 55 9 13 16 31 16 41 0 29 -40 58 -82 58
l-38 0 0 -100z m78 67 c30 -23 -3 -87 -45 -87 -13 0 -19 90 -7 103 7 6 33 -1
52 -16z"/>
<path d="M2590 2220 c0 -82 3 -100 15 -100 11 0 15 12 15 50 l0 50 65 0 65 0
0 -50 c0 -27 5 -50 10 -50 6 0 10 40 10 100 0 60 -4 100 -10 100 -5 0 -10 -18
-10 -40 l0 -40 -65 0 -65 0 0 40 c0 29 -4 40 -15 40 -12 0 -15 -18 -15 -100z"/>
<path d="M2827 2314 c-8 -8 1 -24 14 -24 5 0 9 7 9 15 0 15 -12 20 -23 9z"/>
<path d="M1367 2239 c-39 -23 -41 -86 -3 -111 18 -12 63 -9 75 5 8 11 5 13
-19 9 -32 -5 -60 11 -60 34 0 10 13 14 45 14 38 0 45 3 45 20 0 33 -47 50 -83
29z m63 -20 c0 -5 -15 -9 -32 -9 -31 1 -32 2 -15 15 19 14 47 10 47 -6z"/>
<path d="M1494 2241 c-2 -2 -4 -31 -4 -63 0 -77 24 -76 28 1 3 47 5 52 25 49
19 -3 22 -10 25 -50 2 -27 7 -48 12 -48 5 0 10 21 12 48 3 43 5 47 28 47 23 0
25 -4 28 -53 2 -36 7 -52 15 -49 13 4 16 101 3 114 -8 8 -164 12 -172 4z"/>
<path d="M1731 2224 c-26 -33 -27 -58 -1 -84 21 -21 74 -27 85 -10 4 6 -6 10
-22 10 -16 0 -34 5 -41 12 -23 23 -13 37 30 40 46 3 57 17 33 42 -24 24 -61
20 -84 -10z m69 1 c11 -13 8 -15 -19 -15 -31 0 -42 14 -18 23 20 9 24 8 37 -8z"/>
<path d="M1874 2241 c-9 -9 -4 -121 5 -121 6 0 11 24 13 53 3 48 5 52 28 52
23 0 25 -4 28 -47 2 -27 7 -48 12 -48 5 0 10 21 12 48 3 43 5 47 28 47 23 0
25 -4 28 -52 2 -29 7 -53 13 -53 14 0 11 107 -3 117 -13 8 -156 12 -164 4z"/>
<path d="M2271 2224 c-26 -33 -27 -58 -1 -84 21 -21 74 -27 85 -10 4 6 -6 10
-22 10 -16 0 -34 5 -41 12 -23 23 -13 37 30 40 46 3 57 17 33 42 -24 24 -61
20 -84 -10z m69 1 c11 -13 8 -15 -19 -15 -31 0 -42 14 -18 23 20 9 24 8 37 -8z"/>
<path d="M2414 2241 c-9 -9 -3 -121 6 -121 6 0 10 20 10 45 0 39 3 47 25 55
14 5 25 13 25 18 0 9 -57 11 -66 3z"/>
<path d="M2826 2234 c-8 -20 -8 -78 0 -98 13 -34 24 -14 24 43 0 59 -12 86
-24 55z"/>
<path d="M2900 2183 c0 -35 4 -63 10 -63 6 0 10 23 10 50 0 55 17 73 46 49 11
-9 13 -22 9 -51 -5 -30 -4 -38 9 -38 11 0 16 13 18 47 2 37 7 49 22 51 25 5
36 -14 36 -65 0 -24 5 -43 10 -43 15 0 12 107 -2 117 -7 4 -48 8 -90 8 l-78 0
0 -62z"/>
</g>
</svg>
